<?xml version="1.0" encoding="utf-8"?>
<!-- Generator: Adobe Illustrator 19.0.1, SVG Export Plug-In . SVG Version: 6.00 Build 0)  -->
<svg version="1.1" id="Layer_1" xmlns="http://www.w3.org/2000/svg" xmlns:xlink="http://www.w3.org/1999/xlink" x="0px" y="0px"
	 viewBox="0 0 574.6 101.4" style="enable-background:new 0 0 574.6 101.4;" xml:space="preserve">
<style type="text/css">
	.st0{fill:#FFFFFF;}
</style>
<g>
	<polygon class="st0" points="39.5,53.7 21,53.7 30.3,28.7 	"/>
	<path class="st0" d="M54.4,93.6c-26.3,17.6-48.1,0-48.1,0l12.8-34.7h22.4L54.4,93.6z"/>
	<g>
		<path class="st0" d="M213.9,61.4c0-4-1.4-7.2-4.2-9.6c-2.8-2.3-8-4.6-15.5-6.7c-7.5-2.1-13-4.4-16.5-6.9
			c-4.9-3.5-7.4-8.2-7.4-13.9c0-5.6,2.3-10.1,6.9-13.6c4.6-3.5,10.4-5.2,17.6-5.2c4.8,0,9.2,0.9,13,2.8c3.8,1.9,6.8,4.5,8.9,7.8
			c2.1,3.3,3.1,7,3.1,11.1h-6.2c0-5-1.7-9-5.1-12c-3.4-3-8-4.5-13.7-4.5c-5.6,0-10,1.2-13.3,3.7c-3.3,2.5-4.9,5.7-4.9,9.7
			c0,3.7,1.5,6.7,4.4,9.1c3,2.3,7.7,4.4,14.2,6.2c6.5,1.8,11.5,3.6,14.8,5.5c3.4,1.9,5.9,4.2,7.6,6.9c1.7,2.7,2.5,5.8,2.5,9.4
			c0,5.7-2.3,10.3-6.9,13.8c-4.6,3.5-10.6,5.2-18.1,5.2c-5.1,0-9.8-0.9-14.1-2.7c-4.3-1.8-7.5-4.4-9.7-7.7
			c-2.2-3.3-3.3-7.1-3.3-11.3h6.1c0,5.1,1.9,9.2,5.7,12.1c3.8,3,8.9,4.4,15.3,4.4c5.7,0,10.2-1.2,13.6-3.7
			C212.1,68.9,213.9,65.5,213.9,61.4z"/>
	</g>
	<g>
		<path class="st0" d="M131.9,44.4h-34v29.7H137v5.2H91.7V6.5h45v5.2H97.8v27.5h34V44.4z"/>
	</g>
	<g>
		<path class="st0" d="M33.4,6.6h-5.9L0,79.3h6.4l7.5-20.4h5.2l1.9-5.2h-5.2L30.4,14L45,53.7h-5.5l1.9,5.2H47l7.5,20.4h6.4L33.4,6.6
			z"/>
	</g>
</g>
<g>
	<path class="st0" d="M272.9,13.2c-0.1,1.5-0.7,2.7-1.7,3.5s-2.3,1.3-3.9,1.3c-1.1,0-2.1-0.3-3-0.8s-1.5-1.3-2-2.3s-0.7-2.1-0.7-3.4
		v-1.3c0-1.3,0.2-2.5,0.7-3.5s1.2-1.8,2-2.4s1.9-0.8,3.1-0.8c1.6,0,2.8,0.4,3.8,1.3s1.5,2.1,1.7,3.6h-2.5c-0.1-1-0.4-1.8-0.9-2.2
		s-1.2-0.7-2.1-0.7c-1.1,0-1.9,0.4-2.5,1.2s-0.9,1.9-0.9,3.5v1.3c0,1.5,0.3,2.7,0.8,3.5s1.4,1.2,2.4,1.2c1,0,1.7-0.2,2.2-0.7
		s0.8-1.2,0.9-2.2H272.9z"/>
	<path class="st0" d="M286.1,5.6h-6.6V9h2.9c1,0,2,0.2,2.7,0.5s1.4,0.9,1.8,1.5s0.6,1.4,0.6,2.3c0,1.3-0.5,2.4-1.4,3.2
		s-2.1,1.2-3.7,1.2H277V3.6h9V5.6z M279.5,11v4.8h2.9c0.8,0,1.5-0.2,1.9-0.7s0.7-1.1,0.7-1.8c0-0.7-0.2-1.3-0.7-1.7
		c-0.5-0.4-1.1-0.6-1.9-0.6H279.5z"/>
	<path class="st0" d="M303,11.1c0,1.4-0.2,2.6-0.7,3.7s-1.2,1.9-2.1,2.4s-1.9,0.8-3.1,0.8c-1.2,0-2.2-0.3-3.1-0.8s-1.6-1.4-2.1-2.4
		s-0.7-2.2-0.7-3.6v-0.8c0-1.4,0.2-2.6,0.7-3.7s1.2-1.9,2.1-2.4s1.9-0.8,3.1-0.8s2.2,0.3,3.1,0.8s1.6,1.4,2.1,2.4s0.7,2.3,0.7,3.6
		V11.1z M300.5,10.3c0-1.6-0.3-2.8-0.9-3.6s-1.4-1.3-2.5-1.3c-1.1,0-1.9,0.4-2.5,1.3s-0.9,2-0.9,3.5v0.8c0,1.6,0.3,2.8,0.9,3.6
		s1.5,1.3,2.5,1.3c1.1,0,1.9-0.4,2.5-1.3s0.9-2.1,0.9-3.7V10.3z"/>
	<path class="st0" d="M309.9,12.5v5.3h-2.5V3.6h5.4c1.6,0,2.8,0.4,3.8,1.2s1.4,1.9,1.4,3.3c0,1.4-0.5,2.5-1.4,3.3
		c-0.9,0.8-2.2,1.2-3.8,1.2H309.9z M309.9,10.5h3c0.9,0,1.5-0.2,2-0.6s0.7-1,0.7-1.8c0-0.8-0.2-1.4-0.7-1.8s-1.1-0.7-1.9-0.7h-3
		V10.5z"/>
	<path class="st0" d="M326.5,11.7h-1.7v6.1h-2.5V3.6h2.5v6h1.4l4.2-6h3l-4.9,6.8l5.3,7.4h-3L326.5,11.7z"/>
	<path class="st0" d="M345.1,14.5h-5.5l-1.2,3.3h-2.6l5.4-14.2h2.2l5.4,14.2h-2.6L345.1,14.5z M340.3,12.5h4.1l-2.1-5.9L340.3,12.5z
		"/>
	<path class="st0" d="M368.1,3.6h2.5v14.2h-2.5V7.7l-6.2,10.1h-2.5V3.6h2.5v10.1L368.1,3.6z"/>
	<path class="st0" d="M393.8,17.8h-2.5V5.6h-6.3v12.2h-2.5V3.6h11.2V17.8z"/>
	<path class="st0" d="M401.2,12.5v5.3h-2.5V3.6h5.4c1.6,0,2.8,0.4,3.8,1.2s1.4,1.9,1.4,3.3c0,1.4-0.5,2.5-1.4,3.3
		c-0.9,0.8-2.2,1.2-3.8,1.2H401.2z M401.2,10.5h3c0.9,0,1.5-0.2,2-0.6s0.7-1,0.7-1.8c0-0.8-0.2-1.4-0.7-1.8s-1.1-0.7-1.9-0.7h-3
		V10.5z"/>
	<path class="st0" d="M424.9,11.1c0,1.4-0.2,2.6-0.7,3.7s-1.2,1.9-2.1,2.4S420.2,18,419,18c-1.2,0-2.2-0.3-3.1-0.8s-1.6-1.4-2.1-2.4
		s-0.7-2.2-0.7-3.6v-0.8c0-1.4,0.2-2.6,0.7-3.7s1.2-1.9,2.1-2.4s1.9-0.8,3.1-0.8s2.2,0.3,3.1,0.8s1.6,1.4,2.1,2.4s0.7,2.3,0.7,3.6
		V11.1z M422.4,10.3c0-1.6-0.3-2.8-0.9-3.6s-1.4-1.3-2.5-1.3c-1.1,0-1.9,0.4-2.5,1.3s-0.9,2-0.9,3.5v0.8c0,1.6,0.3,2.8,0.9,3.6
		s1.5,1.3,2.5,1.3c1.1,0,1.9-0.4,2.5-1.3s0.9-2.1,0.9-3.7V10.3z"/>
	<path class="st0" d="M442.1,21.3h-2.3v-3.5h-9.4v3.5H428l-0.1-5.5h1.1c0.6-0.5,1-1.3,1.4-2.4s0.6-2.2,0.7-3.5l0.4-6.3h9v12.2h1.8
		L442.1,21.3z M431.9,15.8h6.1V5.6h-4.2l-0.2,4C433.4,12.3,432.8,14.3,431.9,15.8z"/>
	<path class="st0" d="M454.2,14.5h-5.5l-1.2,3.3H445l5.4-14.2h2.2l5.4,14.2h-2.6L454.2,14.5z M449.4,12.5h4.1l-2.1-5.9L449.4,12.5z"
		/>
	<path class="st0" d="M472.6,11.7H471v6.1h-2.5v-6.1h-1.7l-3.5,6.1h-3.1l4.6-7.6l-4.3-6.7h3l3.4,5.9h1.5V3.6h2.5v5.9h1.5l3.4-5.9h3
		l-4.2,6.6l4.5,7.6h-3.1L472.6,11.7z"/>
	<path class="st0" d="M490.6,14.5h-5.5l-1.2,3.3h-2.6l5.4-14.2h2.2l5.4,14.2h-2.6L490.6,14.5z M485.8,12.5h4.1l-2.1-5.9L485.8,12.5z
		"/>
	<path class="st0" d="M264.5,32.6v12.2h4.3V32.6h2.5v12.2h4.3V32.6h2.5v12.3h1.7l-0.2,5.3h-2.2v-3.4h-15.3V32.6H264.5z"/>
	<path class="st0" d="M292.7,32.6h2.5v14.2h-2.5V36.7l-6.2,10.1h-2.5V32.6h2.5v10.1L292.7,32.6z"/>
	<path class="st0" d="M310.1,34.6h-4.4v12.2h-2.5V34.6h-4.4v-2h11.3V34.6z"/>
	<path class="st0" d="M325,40.1c0,1.4-0.2,2.6-0.7,3.7s-1.2,1.9-2.1,2.4s-1.9,0.8-3.1,0.8c-1.2,0-2.2-0.3-3.1-0.8s-1.6-1.4-2.1-2.4
		s-0.7-2.2-0.7-3.6v-0.8c0-1.4,0.2-2.6,0.7-3.7s1.2-1.9,2.1-2.4s1.9-0.8,3.1-0.8s2.2,0.3,3.1,0.8s1.6,1.4,2.1,2.4s0.7,2.3,0.7,3.6
		V40.1z M322.5,39.3c0-1.6-0.3-2.8-0.9-3.6s-1.4-1.3-2.5-1.3c-1.1,0-1.9,0.4-2.5,1.3s-0.9,2-0.9,3.5v0.8c0,1.6,0.3,2.8,0.9,3.6
		s1.5,1.3,2.5,1.3c1.1,0,1.9-0.4,2.5-1.3s0.9-2.1,0.9-3.7V39.3z"/>
	<path class="st0" d="M329.5,46.8V32.6h4.9c1.6,0,2.8,0.3,3.7,1s1.3,1.6,1.3,2.9c0,0.7-0.2,1.2-0.5,1.8s-0.9,0.9-1.5,1.2
		c0.8,0.2,1.4,0.6,1.8,1.2s0.6,1.3,0.6,2.1c0,1.3-0.4,2.4-1.3,3.1s-2.1,1.1-3.7,1.1H329.5z M332,38.6h2.4c0.8,0,1.4-0.2,1.8-0.5
		s0.6-0.8,0.6-1.5c0-0.7-0.2-1.2-0.6-1.5s-1-0.5-1.9-0.5H332V38.6z M332,40.4v4.4h2.7c0.8,0,1.4-0.2,1.8-0.6s0.7-0.9,0.7-1.6
		c0-1.5-0.8-2.2-2.3-2.3H332z"/>
	<path class="st0" d="M355.4,40.1c0,1.4-0.2,2.6-0.7,3.7s-1.2,1.9-2.1,2.4s-1.9,0.8-3.1,0.8c-1.2,0-2.2-0.3-3.1-0.8
		s-1.6-1.4-2.1-2.4s-0.7-2.2-0.7-3.6v-0.8c0-1.4,0.2-2.6,0.7-3.7s1.2-1.9,2.1-2.4s1.9-0.8,3.1-0.8s2.2,0.3,3.1,0.8s1.6,1.4,2.1,2.4
		s0.7,2.3,0.7,3.6V40.1z M353,39.3c0-1.6-0.3-2.8-0.9-3.6s-1.4-1.3-2.5-1.3c-1.1,0-1.9,0.4-2.5,1.3s-0.9,2-0.9,3.5v0.8
		c0,1.6,0.3,2.8,0.9,3.6s1.5,1.3,2.5,1.3c1.1,0,1.9-0.4,2.5-1.3s0.9-2.1,0.9-3.7V39.3z"/>
	<path class="st0" d="M369,34.6h-6.6v12.2H360V32.6h9V34.6z"/>
	<path class="st0" d="M383.7,40.1c0,1.4-0.2,2.6-0.7,3.7s-1.2,1.9-2.1,2.4S379,47,377.9,47c-1.2,0-2.2-0.3-3.1-0.8s-1.6-1.4-2.1-2.4
		s-0.7-2.2-0.7-3.6v-0.8c0-1.4,0.2-2.6,0.7-3.7s1.2-1.9,2.1-2.4s1.9-0.8,3.1-0.8s2.2,0.3,3.1,0.8s1.6,1.4,2.1,2.4s0.7,2.3,0.7,3.6
		V40.1z M381.3,39.3c0-1.6-0.3-2.8-0.9-3.6s-1.4-1.3-2.5-1.3c-1.1,0-1.9,0.4-2.5,1.3s-0.9,2-0.9,3.5v0.8c0,1.6,0.3,2.8,0.9,3.6
		s1.5,1.3,2.5,1.3c1.1,0,1.9-0.4,2.5-1.3s0.9-2.1,0.9-3.7V39.3z"/>
	<path class="st0" d="M406.5,40.1c0,1.4-0.2,2.6-0.7,3.7s-1.2,1.9-2.1,2.4s-1.9,0.8-3.1,0.8c-1.2,0-2.2-0.3-3.1-0.8
		s-1.6-1.4-2.1-2.4s-0.7-2.2-0.7-3.6v-0.8c0-1.4,0.2-2.6,0.7-3.7s1.2-1.9,2.1-2.4s1.9-0.8,3.1-0.8s2.2,0.3,3.1,0.8s1.6,1.4,2.1,2.4
		s0.7,2.3,0.7,3.6V40.1z M404.1,39.3c0-1.6-0.3-2.8-0.9-3.6s-1.4-1.3-2.5-1.3c-1.1,0-1.9,0.4-2.5,1.3s-0.9,2-0.9,3.5v0.8
		c0,1.6,0.3,2.8,0.9,3.6s1.5,1.3,2.5,1.3c1.1,0,1.9-0.4,2.5-1.3s0.9-2.1,0.9-3.7V39.3z"/>
	<path class="st0" d="M420,34.6h-6.6V38h2.9c1,0,2,0.2,2.7,0.5s1.4,0.9,1.8,1.5s0.6,1.4,0.6,2.3c0,1.3-0.5,2.4-1.4,3.2
		s-2.1,1.2-3.7,1.2H411V32.6h9V34.6z M413.4,40v4.8h2.9c0.8,0,1.5-0.2,1.9-0.7s0.7-1.1,0.7-1.8c0-0.7-0.2-1.3-0.7-1.7
		c-0.5-0.4-1.1-0.6-1.9-0.6H413.4z"/>
	<path class="st0" d="M436.9,40.1c0,1.4-0.2,2.6-0.7,3.7s-1.2,1.9-2.1,2.4S432.2,47,431,47c-1.2,0-2.2-0.3-3.1-0.8s-1.6-1.4-2.1-2.4
		s-0.7-2.2-0.7-3.6v-0.8c0-1.4,0.2-2.6,0.7-3.7s1.2-1.9,2.1-2.4s1.9-0.8,3.1-0.8s2.2,0.3,3.1,0.8s1.6,1.4,2.1,2.4s0.7,2.3,0.7,3.6
		V40.1z M434.4,39.3c0-1.6-0.3-2.8-0.9-3.6s-1.4-1.3-2.5-1.3c-1.1,0-1.9,0.4-2.5,1.3s-0.9,2-0.9,3.5v0.8c0,1.6,0.3,2.8,0.9,3.6
		S430,45,431,45c1.1,0,1.9-0.4,2.5-1.3s0.9-2.1,0.9-3.7V39.3z"/>
	<path class="st0" d="M443.8,41.5v5.3h-2.5V32.6h5.4c1.6,0,2.8,0.4,3.8,1.2s1.4,1.9,1.4,3.3c0,1.4-0.5,2.5-1.4,3.3
		c-0.9,0.8-2.2,1.2-3.8,1.2H443.8z M443.8,39.5h3c0.9,0,1.5-0.2,2-0.6s0.7-1,0.7-1.8c0-0.8-0.2-1.4-0.7-1.8s-1.1-0.7-1.9-0.7h-3
		V39.5z"/>
	<path class="st0" d="M461.3,40l2.9-7.4h2.7l-5,11.8l-0.4,0.9c-0.7,1.2-1.7,1.7-3.2,1.7l-1-0.1l0-2c0.2,0,0.4,0,0.8,0
		c0.7,0,1.2-0.3,1.5-0.9l0.5-1.2l-4.9-10.4h2.7L461.3,40z"/>
	<path class="st0" d="M483,50.3h-2.3v-3.5h-9.4v3.5h-2.4l-0.1-5.5h1.1c0.6-0.5,1-1.3,1.4-2.4s0.6-2.2,0.7-3.5l0.4-6.3h9v12.2h1.8
		L483,50.3z M472.8,44.8h6.1V34.6h-4.2l-0.2,4C474.3,41.3,473.8,43.3,472.8,44.8z"/>
	<path class="st0" d="M498.1,40.1c0,1.4-0.2,2.6-0.7,3.7s-1.2,1.9-2.1,2.4s-1.9,0.8-3.1,0.8c-1.2,0-2.2-0.3-3.1-0.8
		s-1.6-1.4-2.1-2.4s-0.7-2.2-0.7-3.6v-0.8c0-1.4,0.2-2.6,0.7-3.7s1.2-1.9,2.1-2.4s1.9-0.8,3.1-0.8s2.2,0.3,3.1,0.8s1.6,1.4,2.1,2.4
		s0.7,2.3,0.7,3.6V40.1z M495.7,39.3c0-1.6-0.3-2.8-0.9-3.6s-1.4-1.3-2.5-1.3c-1.1,0-1.9,0.4-2.5,1.3s-0.9,2-0.9,3.5v0.8
		c0,1.6,0.3,2.8,0.9,3.6s1.5,1.3,2.5,1.3c1.1,0,1.9-0.4,2.5-1.3s0.9-2.1,0.9-3.7V39.3z"/>
	<path class="st0" d="M502.6,46.8V32.6h4.9c1.6,0,2.8,0.3,3.7,1s1.3,1.6,1.3,2.9c0,0.7-0.2,1.2-0.5,1.8c-0.4,0.5-0.9,0.9-1.5,1.2
		c0.8,0.2,1.4,0.6,1.8,1.2c0.4,0.6,0.6,1.3,0.6,2.1c0,1.3-0.4,2.4-1.3,3.1c-0.9,0.7-2.1,1.1-3.7,1.1H502.6z M505.1,38.6h2.4
		c0.8,0,1.4-0.2,1.8-0.5s0.6-0.8,0.6-1.5c0-0.7-0.2-1.2-0.6-1.5s-1-0.5-1.9-0.5h-2.4V38.6z M505.1,40.4v4.4h2.7
		c0.8,0,1.4-0.2,1.8-0.6s0.7-0.9,0.7-1.6c0-1.5-0.8-2.2-2.3-2.3H505.1z"/>
	<path class="st0" d="M525.2,43.5h-5.5l-1.2,3.3h-2.6l5.4-14.2h2.2l5.4,14.2h-2.6L525.2,43.5z M520.4,41.5h4.1l-2.1-5.9L520.4,41.5z
		"/>
	<path class="st0" d="M543.8,46.8h-2.5v-6.3H535v6.3h-2.5V32.6h2.5v5.9h6.4v-5.9h2.5V46.8z"/>
	<path class="st0" d="M557.4,32.6h2.5v14.2h-2.5V36.7l-6.2,10.1h-2.5V32.6h2.5v10.1L557.4,32.6z"/>
	<path class="st0" d="M571.9,46.8v-5.3h-2.8l-2.7,5.3h-2.6l3.2-6c-1.7-0.8-2.5-2.1-2.5-3.8c0-1.4,0.4-2.4,1.3-3.2s2.1-1.1,3.7-1.2
		h4.8v14.2H571.9z M566.9,37c0,0.8,0.2,1.4,0.7,1.9s1.1,0.7,2,0.7h2.3v-5h-2.3c-0.9,0-1.6,0.2-2,0.7S566.9,36.3,566.9,37z"/>
	<path class="st0" d="M262,75.8V61.6h4.9c1.6,0,2.8,0.3,3.7,1s1.3,1.6,1.3,2.9c0,0.7-0.2,1.2-0.5,1.8s-0.9,0.9-1.5,1.2
		c0.8,0.2,1.4,0.6,1.8,1.2s0.6,1.3,0.6,2.1c0,1.3-0.4,2.4-1.3,3.1s-2.1,1.1-3.7,1.1H262z M264.5,67.6h2.4c0.8,0,1.4-0.2,1.8-0.5
		s0.6-0.8,0.6-1.5c0-0.7-0.2-1.2-0.6-1.5s-1-0.5-1.9-0.5h-2.4V67.6z M264.5,69.4v4.4h2.7c0.8,0,1.4-0.2,1.8-0.6s0.7-0.9,0.7-1.6
		c0-1.5-0.8-2.2-2.3-2.3H264.5z"/>
	<path class="st0" d="M291.6,72.5h-5.5l-1.2,3.3h-2.6l5.4-14.2h2.2l5.4,14.2h-2.6L291.6,72.5z M286.8,70.5h4.1l-2.1-5.9L286.8,70.5z
		"/>
	<path class="st0" d="M310.3,61.6v14.2h-2.5V63.6h-4.4l-0.3,5.5c-0.1,1.7-0.3,3.1-0.6,4s-0.8,1.6-1.4,2.1s-1.4,0.7-2.5,0.7h-0.6v-2
		l0.4,0c0.6-0.1,1-0.3,1.3-0.6s0.5-0.9,0.7-1.6s0.3-1.7,0.3-3.1l0.3-7H310.3z"/>
	<path class="st0" d="M318.4,61.6l4.1,10.9l4.1-10.9h3.2v14.2h-2.5v-4.7l0.2-6.3l-4.2,11h-1.8l-4.2-10.9l0.2,6.3v4.7h-2.5V61.6
		H318.4z"/>
	<path class="st0" d="M342.9,72.5h-5.5l-1.2,3.3h-2.6l5.4-14.2h2.2l5.4,14.2H344L342.9,72.5z M338.1,70.5h4.1l-2.1-5.9L338.1,70.5z"
		/>
	<path class="st0" d="M359.3,63.6h-4.4v12.2h-2.5V63.6h-4.4v-2h11.3V63.6z"/>
	<path class="st0" d="M365.7,67h2.9c1,0,2,0.2,2.7,0.5s1.4,0.9,1.8,1.5s0.6,1.4,0.6,2.3c0,1.3-0.5,2.4-1.4,3.2s-2.1,1.2-3.7,1.2
		h-5.4V61.6h2.5V67z M365.7,69v4.8h2.9c0.8,0,1.5-0.2,1.9-0.7s0.7-1.1,0.7-1.8c0-0.7-0.2-1.3-0.7-1.7c-0.5-0.4-1.1-0.6-1.9-0.6
		H365.7z M377.6,75.8h-2.5V61.6h2.5V75.8z"/>
</g>
</svg>
