<?xml version="1.0" encoding="utf-8"?>
<!-- Generator: Adobe Illustrator 22.0.1, SVG Export Plug-In . SVG Version: 6.00 Build 0)  -->
<svg version="1.1" id="Capa_1" xmlns="http://www.w3.org/2000/svg" xmlns:xlink="http://www.w3.org/1999/xlink" x="0px" y="0px"
	 viewBox="0 0 33.3 33.3" style="enable-background:new 0 0 33.3 33.3;" xml:space="preserve">
<style type="text/css">
	.st0{fill:#FFFFFF;stroke:#FFFFFF;stroke-miterlimit:10;}
</style>
<g>
	<g>
		<path class="st0" d="M16.6,24.8L16.6,24.8c-0.3,0-0.5-0.2-0.5-0.5V13c0-0.3,0.2-0.5,0.5-0.5l0,0c0.3,0,0.5,0.2,0.5,0.5v11.3
			C17.1,24.6,16.9,24.8,16.6,24.8z"/>
		<path class="st0" d="M16.6,24.8c-0.1,0-0.3,0-0.4-0.1l-4.3-4.3c-0.2-0.2-0.2-0.5,0-0.7s0.5-0.2,0.7,0l4,4l4-4
			c0.2-0.2,0.5-0.2,0.7,0s0.2,0.5,0,0.7L17,24.7C16.9,24.7,16.8,24.8,16.6,24.8z"/>
	</g>
	<g>
		<path class="st0" d="M27.6,33.3H5.7c-1.4,0-2.5-1.1-2.5-2.5V2.5C3.2,1.1,4.3,0,5.7,0h15.9c0.3,0,0.5,0.2,0.5,0.5S21.9,1,21.6,1
			H5.7C4.9,1,4.2,1.7,4.2,2.5v28.3c0,0.8,0.7,1.5,1.5,1.5h21.9c0.8,0,1.5-0.7,1.5-1.5V8.7c0-0.3,0.2-0.5,0.5-0.5s0.5,0.2,0.5,0.5
			v22.1C30.1,32.2,29,33.3,27.6,33.3z"/>
		<path class="st0" d="M29.6,9.2h-8c-0.3,0-0.5-0.2-0.5-0.5v-8c0-0.3,0.2-0.5,0.5-0.5s0.5,0.2,0.5,0.5v7.5h7.5
			c0.3,0,0.5,0.2,0.5,0.5S29.9,9.2,29.6,9.2z"/>
		<path class="st0" d="M29.6,9.2c-0.1,0-0.3-0.1-0.4-0.2l-8-8.2c-0.2-0.2-0.2-0.5,0-0.7s0.5-0.2,0.7,0l8,8.2c0.2,0.2,0.2,0.5,0,0.7
			C29.8,9.2,29.7,9.2,29.6,9.2z"/>
	</g>
</g>
</svg>
