<?xml version="1.0" encoding="utf-8"?>
<!-- Generator: Adobe Illustrator 19.0.1, SVG Export Plug-In . SVG Version: 6.00 Build 0)  -->
<svg version="1.1" id="Capa_1" xmlns="http://www.w3.org/2000/svg" xmlns:xlink="http://www.w3.org/1999/xlink" x="0px" y="0px"
	 viewBox="-8.9 164.9 447.9 512" style="enable-background:new -8.9 164.9 447.9 512;" xml:space="preserve">
<style type="text/css">
	.st0{fill:#384757;}
</style>
<g>
	<g>
		<path class="st0" d="M415.4,333.2c-4.7,0-8.5-3.8-8.5-8.5V204.5c0-21.8-17.7-39.6-39.6-39.6H62.7c-21.8,0-39.6,17.7-39.6,39.6
			v120.2c0,4.7-3.8,8.5-8.5,8.5c-13,0-23.5,10.6-23.5,23.5c0,13,10.6,23.5,23.5,23.5c4.7,0,8.5,3.8,8.5,8.5v120.2
			c0,19.3,13.8,35.3,32.1,38.8v105.4c0,13,10.6,23.5,23.5,23.5h272.5c13,0,23.5-10.6,23.5-23.5V547.9c18.2-3.5,32.1-19.6,32.1-38.8
			V388.8c0-4.7,3.8-8.5,8.5-8.5c13,0,23.5-10.6,23.5-23.5C438.9,343.8,428.4,333.2,415.4,333.2z M23.1,366.9c-2.6-1-5.5-1.6-8.5-1.6
			c-4.7,0-8.5-3.8-8.5-8.5c0-4.7,3.8-8.5,8.5-8.5c3,0,5.9-0.6,8.5-1.6V366.9z M359.8,653.4c0,4.7-3.8,8.5-8.5,8.5H78.7
			c-4.7,0-8.5-3.8-8.5-8.5V548.6h17.1v48.6c0,8.6,7,15.5,15.5,15.5h224.5c8.6,0,15.5-7,15.5-15.5v-48.6h17.1V653.4z M142.9,580.7
			c4.1,0,7.5-3.4,7.5-7.5v-24.6h33.1v24.6c0,4.1,3.4,7.5,7.5,7.5s7.5-3.4,7.5-7.5v-24.6h33.1v24.6c0,4.1,3.4,7.5,7.5,7.5
			s7.5-3.4,7.5-7.5v-24.6h33.1v24.6c0,4.1,3.4,7.5,7.5,7.5s7.5-3.4,7.5-7.5v-24.6h33.1v48.6c0,0.3-0.2,0.5-0.5,0.5H102.8
			c-0.3,0-0.5-0.2-0.5-0.5v-48.6h33.1v24.6C135.4,577.3,138.7,580.7,142.9,580.7z M367.3,533.6H62.7c-13.5,0-24.6-11-24.6-24.6
			V204.5c0-13.5,11-24.6,24.6-24.6h304.6c13.5,0,24.6,11,24.6,24.6v304.6h0C391.9,522.6,380.9,533.6,367.3,533.6z M415.4,365.3
			c-3,0-5.9,0.6-8.5,1.6v-20.3c2.6,1,5.5,1.6,8.5,1.6c4.7,0,8.5,3.8,8.5,8.5C423.9,361.5,420.1,365.3,415.4,365.3z"/>
	</g>
</g>
<g>
	<g>
		<path class="st0" d="M311.2,205H70.7c-4.1,0-7.5,3.4-7.5,7.5v288.6c0,4.1,3.4,7.5,7.5,7.5h16c4.1,0,7.5-3.4,7.5-7.5
			s-3.4-7.5-7.5-7.5h-8.5V220h233c4.1,0,7.5-3.4,7.5-7.5C318.7,208.3,315.3,205,311.2,205z"/>
	</g>
</g>
<g>
	<g>
		<path class="st0" d="M359.3,205h-16c-4.1,0-7.5,3.4-7.5,7.5s3.4,7.5,7.5,7.5h8.5v273.6h-233c-4.1,0-7.5,3.4-7.5,7.5
			s3.4,7.5,7.5,7.5h240.5c4.1,0,7.5-3.4,7.5-7.5V212.5C366.8,208.3,363.4,205,359.3,205z"/>
	</g>
</g>
<g>
	<g>
		<path class="st0" d="M303.2,293.2H126.8c-8.6,0-15.5,7-15.5,15.5v32.1c0,8.6,7,15.5,15.5,15.5h176.4c8.6,0,15.5-7,15.5-15.5v-32.1
			C318.7,300.1,311.7,293.2,303.2,293.2z M143.4,341.2h-16.5c-0.3,0-0.5-0.2-0.5-0.5v-32.1c0-0.3,0.2-0.5,0.5-0.5h16.5V341.2z
			 M175.4,341.2h-17.1v-33.1h17.1V341.2z M207.5,341.2h-17.1v-33.1h17.1V341.2z M239.6,341.2h-17.1v-33.1h17.1V341.2z M271.6,341.2
			h-17.1v-33.1h17.1V341.2z M303.7,340.7c0,0.3-0.2,0.5-0.5,0.5h-16.5v-33.1h16.5c0.3,0,0.5,0.2,0.5,0.5V340.7z"/>
	</g>
</g>
<g>
	<g>
		<path class="st0" d="M134.8,381.3c-13,0-23.5,10.6-23.5,23.5c0,13,10.6,23.5,23.5,23.5c13,0,23.5-10.6,23.5-23.5
			C158.4,391.9,147.8,381.3,134.8,381.3z M134.8,413.4c-4.7,0-8.5-3.8-8.5-8.5c0-4.7,3.8-8.5,8.5-8.5s8.5,3.8,8.5,8.5
			C143.4,409.6,139.5,413.4,134.8,413.4z"/>
	</g>
</g>
<g>
	<g>
		<path class="st0" d="M295.2,381.3c-13,0-23.5,10.6-23.5,23.5c0,13,10.6,23.5,23.5,23.5s23.5-10.6,23.5-23.5
			C318.7,391.9,308.1,381.3,295.2,381.3z M295.2,413.4c-4.7,0-8.5-3.8-8.5-8.5c0-4.7,3.8-8.5,8.5-8.5s8.5,3.8,8.5,8.5
			C303.7,409.6,299.9,413.4,295.2,413.4z"/>
	</g>
</g>
<g>
	<g>
		<path class="st0" d="M215,381.3c-13,0-23.5,10.6-23.5,23.5c0,13,10.6,23.5,23.5,23.5c13,0,23.5-10.6,23.5-23.5
			C238.5,391.9,228,381.3,215,381.3z M215,413.4c-4.7,0-8.5-3.8-8.5-8.5c0-4.7,3.8-8.5,8.5-8.5c4.7,0,8.5,3.8,8.5,8.5
			C223.5,409.6,219.7,413.4,215,413.4z"/>
	</g>
</g>
</svg>
