<?xml version="1.0" encoding="utf-8"?>
<!-- Generator: Adobe Illustrator 22.0.1, SVG Export Plug-In . SVG Version: 6.00 Build 0)  -->
<svg version="1.1" id="Слой_1" xmlns="http://www.w3.org/2000/svg" xmlns:xlink="http://www.w3.org/1999/xlink" x="0px" y="0px"
	 viewBox="0 0 49.7 49.7" style="enable-background:new 0 0 49.7 49.7;" xml:space="preserve">
<style type="text/css">
	.st0{fill:#FFFFFF;}
</style>
<title>Ресурс 4</title>
<g id="Слой_2_1_">
	<g id="Слой_1-2">
		<g id="fb">
			<path class="st0" d="M24.8,0C11.1,0,0,11.1,0,24.8s11.1,24.8,24.8,24.8c13.7,0,24.8-11.1,24.8-24.8c0,0,0,0,0,0
				C49.6,11.1,38.5,0,24.8,0z M31,25.7h-4v14.4h-6V25.7h-2.9v-5.1H21v-3.3c0-2.4,1.1-6,6-6h4.4v4.9h-3.2c-0.7,0-1.2,0.5-1.2,1.2
				c0,0.1,0,0.1,0,0.2v3h4.6L31,25.7z"/>
		</g>
	</g>
</g>
</svg>
