<?xml version="1.0" encoding="utf-8"?>
<!-- Generator: Adobe Illustrator 19.0.1, SVG Export Plug-In . SVG Version: 6.00 Build 0)  -->
<svg version="1.1" id="Layer_1" xmlns="http://www.w3.org/2000/svg" xmlns:xlink="http://www.w3.org/1999/xlink" x="0px" y="0px"
	 viewBox="63 164.9 297.3 512" style="enable-background:new 63 164.9 297.3 512;" xml:space="preserve">
<style type="text/css">
	.st0{fill:#489FCD;}
</style>
<g>
	<g>
		<path class="st0" d="M359.4,340.7c-1.7-3.4-4.3-5.1-7.7-5.1H251l99.8-157.9c1.7-2.6,1.7-6,0-8.5s-4.3-4.3-7.7-4.3H206.6
			c-3.4,0-6,1.7-7.7,4.3l-128,256c-1.7,2.6-1.7,6,0,8.5s5.1,4.3,7.7,4.3h87.9L71,665.8c-1.7,3.4,0,7.7,3.4,10.2
			c0.9,0.9,2.6,0.9,4.3,0.9c2.6,0,5.1-0.9,6.8-2.6l273.1-324.3C360.2,347.5,361.1,344.1,359.4,340.7z M108.5,619.7L187,432
			c0.9-2.6,0.9-5.1-0.9-7.7c-1.7-1.7-4.3-3.4-6.8-3.4h-87L211.8,182h116.1L227.1,339.8c-1.7,2.6-1.7,6,0,8.5s4.3,4.3,7.7,4.3h99
			L108.5,619.7z"/>
	</g>
</g>
</svg>
