<?xml version="1.0" encoding="utf-8"?>
<!-- Generator: Adobe Illustrator 19.0.1, SVG Export Plug-In . SVG Version: 6.00 Build 0)  -->
<svg version="1.1" id="Layer_1" xmlns="http://www.w3.org/2000/svg" xmlns:xlink="http://www.w3.org/1999/xlink" x="0px" y="0px"
	 viewBox="69.9 164.9 290.1 512" style="enable-background:new 69.9 164.9 290.1 512;" xml:space="preserve">
<style type="text/css">
	.st0{fill:#F2F2F2;}
</style>
<g>
	<g>
		<path class="st0" d="M359.3,340.5c-1.4-3-4.4-4.9-7.7-4.9H250.4L350.2,178c1.7-2.6,1.8-6,0.3-8.7c-1.5-2.7-4.4-4.4-7.5-4.4H206.5
			c-3.2,0-6.2,1.8-7.6,4.7l-128,256c-1.3,2.6-1.2,5.8,0.4,8.3c1.6,2.5,4.3,4.1,7.3,4.1h87.7L70.6,665c-1.6,3.9-0.2,8.4,3.4,10.6
			c1.4,0.8,2.9,1.3,4.4,1.3c2.4,0,4.9-1,6.5-3l273.1-324.3C360.2,347.1,360.7,343.5,359.3,340.5z"/>
	</g>
</g>
</svg>
