<?xml version="1.0" encoding="utf-8"?>
<!-- Generator: Adobe Illustrator 19.0.1, SVG Export Plug-In . SVG Version: 6.00 Build 0)  -->
<svg version="1.1" id="Capa_1" xmlns="http://www.w3.org/2000/svg" xmlns:xlink="http://www.w3.org/1999/xlink" x="0px" y="0px"
	 viewBox="-56.5 347.3 413 493" style="enable-background:new -56.5 347.3 413 493;" xml:space="preserve">
<style type="text/css">
	.st0{fill:#489FCD;}
</style>
<g>
	<g>
		<g>
			<g>
				<path class="st0" d="M190,379.3H30c-3.6,0-6.5,2.9-6.5,6.5v128c0,3.6,2.9,6.5,6.5,6.5h160c3.6,0,6.5-2.9,6.5-6.5v-128
					C196.5,382.2,193.6,379.3,190,379.3z M183.5,507.3h-147v-115h147V507.3z"/>
			</g>
			<g>
				<path class="st0" d="M347.6,718.2l-8.6-8.6c-9.3-9.2-14.5-22-14.5-35V449.8c0-1.7-0.7-3.4-1.9-4.6l-32-32
					c-1.2-1.2-2.9-1.9-4.6-1.9h-25.5v-25.5c0-3.6-2.9-6.5-6.5-6.5h-25.5v-25.5c0-3.6-2.9-6.5-6.5-6.5H-2c-3.6,0-6.5,2.9-6.5,6.5
					v441.5H-50c-3.6,0-6.5,2.9-6.5,6.5v32c0,3.6,2.9,6.5,6.5,6.5h320c3.6,0,6.5-2.9,6.5-6.5v-32c0-3.6-2.9-6.5-6.5-6.5h-41.5v-179
					H246c14.1,0,25.5,11.4,25.5,25.5v72.8c0,16.5,6.6,32.6,18.3,44.2l8.6,8.6c5.7,5.7,13.5,8.9,21.5,8.9h6.1
					c16.8,0,30.5-13.7,30.5-30.5v-6.1C356.5,731.7,353.3,723.8,347.6,718.2z M4.5,360.3h211v435H4.5V360.3z M263.5,808.3v19h-307
					v-19H263.5z M292.5,433.5l19,19v22.8h-19V433.5z M228.5,392.3h19v83h-19V392.3z M343.5,745.8c0,9.7-7.8,17.5-17.5,17.5h-6.1
					c-4.6,0-9.1-1.9-12.3-5.1l-8.6-8.6c-9.3-9.2-14.5-22-14.5-35v-72.8c0-21.2-17.3-38.5-38.5-38.5h-17.5v-115H254
					c3.6,0,6.5-2.9,6.5-6.5v-57.5h19v57.5c0,3.6,2.9,6.5,6.5,6.5h25.5v186.3c0,16.5,6.6,32.6,18.3,44.2l8.6,8.6
					c3.3,3.3,5.2,7.8,5.1,12.4V745.8z"/>
			</g>
			<g>
				<path class="st0" d="M147.8,670.9l-31.9-64c-1.9-3.2-6.1-4.3-9.3-2.3c-1,0.6-1.8,1.4-2.3,2.3l-32,63.9c-0.5,0.9-0.7,1.9-0.7,2.9
					c0,21.2,17.3,38.5,38.5,38.5s38.5-17.3,38.5-38.5C148.5,672.8,148.3,671.8,147.8,670.9z M135.4,675.7
					c-1,13.3-12.1,23.6-25.4,23.6s-24.5-10.4-25.4-23.6v-0.4l25.5-50.9l25.5,50.9L135.4,675.7z"/>
			</g>
			<g>
				<path class="st0" d="M110,571.3c-47.7,0-86.5,38.8-86.5,86.5c0,47.7,38.8,86.5,86.5,86.5s86.5-38.8,86.5-86.5
					C196.4,610.2,157.6,571.4,110,571.3z M110,731.3c-40.5,0-73.5-33-73.5-73.5s33-73.5,73.5-73.5s73.5,33,73.5,73.5
					S150.5,731.2,110,731.3z"/>
			</g>
			<g>
				<rect x="55.5" y="411.3" class="st0" width="13" height="29"/>
			</g>
			<g>
				<rect x="87.5" y="411.3" class="st0" width="13" height="29"/>
			</g>
			<g>
				<rect x="119.5" y="411.3" class="st0" width="13" height="29"/>
			</g>
			<g>
				<rect x="151.5" y="411.3" class="st0" width="13" height="29"/>
			</g>
			<g>
				<rect x="55.5" y="459.3" class="st0" width="109" height="13"/>
			</g>
		</g>
	</g>
</g>
</svg>
