<?xml version="1.0" encoding="utf-8"?>
<!-- Generator: Adobe Illustrator 19.0.1, SVG Export Plug-In . SVG Version: 6.00 Build 0)  -->
<svg version="1.1" id="Слой_1" xmlns="http://www.w3.org/2000/svg" xmlns:xlink="http://www.w3.org/1999/xlink" x="0px" y="0px"
	 viewBox="0 0 301.7 299.5" style="enable-background:new 0 0 301.7 299.5;" xml:space="preserve">
<style type="text/css">
	.st0{fill:#4D99C2;stroke:#4D99C2;stroke-miterlimit:10;}
</style>
<g>
	<g>
		<path class="st0" d="M211.3,182.9c-0.1-4.4-3.2-7.5-7.8-7.7c-0.9,0-1.8,0-2.8,0c-1.5,0-3,0-4.5-0.1c-1.9-0.2-4-1.8-4.8-3.6
			c-2.9-6.7-5.8-13.5-8.4-20.3c-0.7-1.8-0.3-4.4,0.9-5.9c1-1.2,2-2.2,3-3.2c0.8-0.8,1.5-1.5,2.2-2.2c2.9-3.3,2.9-7.5,0.1-10.5
			c-5.4-5.7-11-11.3-16.7-16.7c-3-2.9-7.2-2.8-10.5,0.1c-1.7,1.5-3.3,3-4.6,4.5c-2.7,3-5.4,2.3-7.2,1.4c-6.3-2.8-12.9-5.6-19.5-8.1
			c-1.8-0.7-4.2-2.1-4-5.9c0.1-2.2,0.1-4.4,0-6.5c-0.2-4.5-3.2-7.6-7.5-7.7c-7.6-0.2-15.4-0.2-23.3,0c-4.1,0.1-7.1,3.1-7.5,7.4
			c-0.2,2.3-0.2,4.3-0.1,6.1c0.3,4.4-2.5,6-4.6,6.8c-6.7,2.5-13.2,5.3-18.7,7.8c-1.4,0.6-4.6,2.1-7.5-1.3c-1.3-1.5-2.9-3-4.8-4.7
			c-3.2-2.7-7.2-2.8-10.1-0.2c-5.7,5.3-11.5,11.1-17.1,17c-2.6,2.8-2.6,6.9,0.1,10.1c1.5,1.7,3,3.3,4.7,4.8c3.1,2.8,2.3,5.7,1.3,7.6
			c-2.4,5-4.9,10.4-6.9,15.7l-0.3,0.9c-2.2,6-3.6,6.9-10.2,6.5c-5.6-0.3-8.9,1.5-10.7,6.1v26.2c1.8,4.7,5.1,6.6,10.6,6.1
			c0.8-0.1,1.5,0,2.1,0c0.5,0,1,0,1.5,0c4.3-0.3,5.6,2.9,6,4c2.3,6,4.9,12.2,8.1,19.5c0.5,1.2,1.9,4.3-1.3,7c-1.6,1.4-3.2,3-4.7,4.8
			c-2.9,3.3-2.9,7.5-0.1,10.5c5.4,5.7,11,11.3,16.7,16.7c3,2.8,7.2,2.8,10.5-0.1c1.7-1.5,3.3-3.1,4.8-4.7c1.4-1.5,2.8-2,4.1-2
			c1.3,0,2.4,0.5,3,0.7c7.3,3.2,13.6,5.8,19.5,8.1c2.8,1.1,4.1,3,4,5.8c0,2-0.1,4.5,0.1,7.1c0.3,4.1,3.4,7.1,7.4,7.2
			c7.8,0.2,15.7,0.2,23.3,0c4.1-0.1,7.2-3.1,7.4-7.4c0.1-1,0.1-2,0.1-3.1c0-1.5,0-2.9,0.2-4.5c0.2-2,1.8-4.1,3.5-4.9
			c6.6-2.9,13.4-5.7,20.3-8.4c1.8-0.7,4.4-0.3,6,0.9c1.2,0.9,2.2,2,3.2,3c0.8,0.8,1.5,1.5,2.2,2.2c3.3,2.9,7.5,2.9,10.5,0.1
			c5.9-5.6,11.5-11.2,16.6-16.7c2.9-3,2.8-7.2-0.1-10.5c-1.3-1.5-2.9-3.1-4.8-4.8c-2-1.9-2.5-4.1-1.3-6.7c1.5-3.4,2.9-6.8,4.3-10.2
			c1.3-3.2,2.7-6.5,4.1-9.7c0.8-1.9,2.9-3.5,4.9-3.8c1.6-0.2,3.1-0.2,4.5-0.2c1.1,0,2.1,0,3-0.1c4.3-0.4,7.3-3.4,7.4-7.5
			C211.4,198.6,211.4,190.8,211.3,182.9z M206.5,209.1H193c-4.4,0-4.4,0-5.4,4.2c-2,8.4-5.3,16.4-9.8,23.8c-0.7,1.1-2.1,3.5-2,4.2
			c0.1,0.8,2.1,2.7,3.1,3.8c1.6,1.5,3.1,3,4.6,4.5c0.7,0.6,1.3,1.2,1.8,1.8l2.2,2.1l-20.8,20.9l-9.2-9.2c-3-3-3-3-6.6-0.8
			c-8,4.9-16.3,8.4-24.9,10.3c-3.8,0.9-3.8,0.9-3.9,5.2c0,3.3,0,6.5-0.1,9.8c0,0.8-0.3,1.4-0.4,1.7c0,0.1-0.1,0.1-0.1,0.2l-0.7,2
			h-28l0-6.8c0-2.7,0-5.4,0-8c0-3.1-0.3-3.2-2.9-3.8c-9.6-2.2-18.8-6.1-27.3-11.4c-1.7-1-2.3-1.1-4,0.6c-2,2-4,4-5.8,5.9
			c-0.8,0.8-1.6,1.6-2.4,2.4l-2.1,2.2L27,253.3l2.3-2.1c0.7-0.7,1.5-1.4,2.3-2.1c1.9-1.7,3.8-3.5,5.7-5.3c2.4-2.3,2.4-2.6,0.6-5.4
			c-5-8-8.6-16.8-10.8-26c-0.8-3.2-0.8-3.4-4.6-3.4c-2.5,0-5,0-7.6,0H8.4v-29.4l6.4,0c2.5,0,5,0,7.5,0c4,0,4-0.2,4.8-3.6
			c2.1-8.9,5.7-17.5,10.7-25.7c1.9-3,1.8-3.2-0.7-5.7c-1.8-1.8-3.7-3.6-5.5-5.3c-0.8-0.8-1.6-1.5-2.3-2.2l-2.2-2.1L48.2,114l2.1,2.2
			c0.7,0.8,1.5,1.6,2.2,2.4c1.8,1.9,3.6,3.8,5.5,5.7c2.3,2.3,2.6,2.3,5.2,0.8c8.3-5.2,17.3-8.9,26.5-11c2.8-0.6,3-0.9,3-4
			c0-2.6,0-5.3,0-8l0-6.7h29.3v13.5c0,4.4,0,4.4,4.2,5.5c8.8,2.1,17.1,5.6,24.8,10.4c3.2,2,3.3,2,6.1-0.8c1.8-1.8,3.5-3.6,5.1-5.4
			c0.7-0.8,1.4-1.5,2.1-2.3l2.1-2.3l21.3,21.2l-2.2,2.1c-0.8,0.8-1.7,1.6-2.5,2.4c-1.9,1.8-3.9,3.7-5.8,5.6c-2,2-2.1,2.4-0.6,4.7
			c5.2,8.3,8.9,17.3,11.1,26.8c0.6,2.7,0.8,3,4,3c2.6,0,5.3,0,8,0l6.7,0V209.1z"/>
	</g>
	<g>
		<path class="st0" d="M301.5,58.6c-0.2-4.1-3.1-7.1-7.2-7.5c-1-0.1-2.1-0.1-3.3-0.1c-1.5,0-3,0-4.5-0.2c-1.9-0.2-4-1.5-5-3.2
			c-2.5-4.1-5-8.4-7.6-13.2c-0.9-1.7-1-4-0.3-5.7c0.6-1.4,1.4-2.6,2.1-3.8c0.6-1,1.2-2,1.7-3c1.8-3.7,0.7-7.6-2.6-9.8
			c-3.6-2.3-7.3-4.5-11-6.3c-3.7-1.9-7.5-0.8-10,2.8c-1,1.5-2,3-2.7,4.7c-1.7,3.8-4.5,5.2-8.5,4.2c-1.6-0.4-3.6-0.4-5.6-0.3l-0.7,0
			c-0.8,0-1.7,0.2-2.6,0.3c-2.3,0.4-4.9,0.8-7.2-0.4c-2.4-1.2-3.6-3.7-4.6-5.9c-0.4-0.8-0.8-1.6-1.1-2.2c-1.6-2.6-3.9-3.9-7.5-4.1
			c-0.2,0-0.3,0.1-0.5,0.1c-0.8,0.2-1.9,0.5-2.7,0.9c-3.8,2-7.1,3.9-10,5.8c-3.8,2.4-4.8,6.5-2.8,10.6c0.4,0.8,0.9,1.6,1.4,2.5
			c0.7,1.2,1.5,2.5,2.1,3.8c0.8,1.7,0.6,4-0.3,5.7c-0.7,1.2-1.5,2.4-2.3,3.4c-0.7,1-1.4,2-2,3c-0.4,0.7-0.8,1.7-1.1,2.7
			c-0.9,2.3-1.8,4.9-4.1,6.3c-2.3,1.5-5.2,1.3-7.7,1.2c-1.1,0-2-0.1-2.9,0c-4.3,0.3-7.3,3.3-7.5,7.5c-0.2,4-0.2,8,0,11.9
			c0.2,4.3,3.2,7.3,7.7,7.5c0.9,0,1.8,0,2.8,0c1.5,0,3,0,4.6,0.2c1.9,0.2,3.9,1.6,5,3.2c2.5,4.1,5,8.4,7.6,13.2c0.9,1.7,1,4,0.3,5.7
			c-0.6,1.4-1.4,2.6-2.1,3.9c-0.6,0.9-1.1,1.8-1.5,2.7c-1.9,3.9-0.9,7.9,2.6,10.2c3.3,2.2,6.7,4.2,10.2,5.9c4.2,2.1,8,1.1,10.7-2.9
			c0.9-1.3,1.8-2.7,2.4-4.1c1.8-4.1,4.8-5.6,9-4.5c1.4,0.4,3.1,0.3,4.9,0.3l0.8,0c0.8,0,1.7-0.2,2.7-0.3c1.2-0.2,2.5-0.4,3.7-0.4
			c1.3,0,2.5,0.2,3.7,0.8c2.4,1.2,3.6,3.7,4.6,5.9c0.4,0.9,0.8,1.7,1.3,2.4c2.5,3.8,6.6,4.9,10.6,2.8c3.3-1.7,6.6-3.6,9.8-5.6
			c4.1-2.6,5.1-6.7,2.8-11c-0.4-0.7-0.8-1.5-1.3-2.2c-0.7-1.2-1.5-2.5-2.1-3.9c-0.7-1.7-0.6-4,0.4-5.7c0.7-1.3,1.6-2.4,2.4-3.6
			c0.7-1.1,1.5-2.1,2-3.1c0.4-0.7,0.8-1.7,1.2-2.6c0.9-2.3,1.9-4.8,4.1-6.2c2.3-1.5,5.1-1.3,7.6-1.1c1,0.1,2,0.1,2.8,0.1
			c4.2-0.3,7.2-3.3,7.4-7.5C301.7,66.6,301.7,62.6,301.5,58.6z M296.8,73.6l-6.3,0c-2.4,0-4.9,0-7.3,0c-4,0-4,0-5.3,3.8
			c-2,6.1-5.2,11.6-9.5,16.3c-2.4,2.7-2.4,2.7-0.6,6l6.9,12.1l-2.5,1.6l-12.9,7.5l-7.2-12.4c-1.7-2.9-1.9-3-5-2.3
			c-6.7,1.5-13.5,1.5-20.1-0.1c-2.7-0.6-3.1-0.5-4.6,2c-1.3,2.2-2.6,4.5-3.9,6.8l-3.4,5.9l-15.5-9l3.4-5.9c1.3-2.3,2.6-4.5,3.9-6.7
			c1.6-2.8,1.4-3.1-0.4-5c-4.7-5-8.1-10.9-10.3-17.7c-0.9-2.9-1-3-4.3-3c-2.6,0-5.2,0-7.8,0h-6.5v-18h6.5c2.6,0,5.2,0,7.8,0
			c3.3,0,3.4-0.1,4.3-3c2.1-6.6,5.5-12.5,10-17.4c2.1-2.3,2.1-2.5,0.6-5.3c-1.3-2.2-2.5-4.4-3.9-6.7l-3.3-5.8l15.5-9l3.4,5.9
			c1.4,2.4,2.7,4.7,4.1,7.1c1.3,2.2,1.7,2.4,4.1,1.8c7-1.7,14.1-1.7,21.1,0c2.2,0.5,2.7,0.3,3.9-1.7c1.4-2.3,2.7-4.7,4.1-7.1
			c0.6-1.1,1.3-2.2,1.9-3.4l1.5-2.6l15.5,8.9l-3.3,5.7c-1.3,2.3-2.6,4.5-3.9,6.7c-1.7,2.9-1.6,3.1,0.6,5.5
			c4.5,4.9,7.8,10.5,9.9,17.2c1,3.2,1,3.2,4.5,3.2c2.5,0,5,0,7.5,0l6.5,0V73.6z"/>
	</g>
	<g>
		<path class="st0" d="M299.5,175.3c-0.7-0.1-1.5-0.1-2.3-0.1c-1,0-2,0-3.1-0.1c-1.6-0.2-3.6-1.2-4.4-2.9c-1-2.3-1.9-4.6-2.8-7.1
			c-0.3-0.9-0.7-1.8-1-2.7l-0.8-2l1.7-1.4c0.2-0.2,0.5-0.4,0.7-0.6c0.5-0.4,1-0.8,1.5-1.3c0.8-0.8,1.5-1.5,2.1-2.2
			c0.8-1,0.8-2.1,0-2.9c-0.8-0.8-2-0.9-3-0.2c-0.6,0.4-1.2,1-1.8,1.6c-0.7,0.7-1.3,1.3-2.1,2c-1,0.8-3.2,1.9-5.2,1.1
			c-2.4-0.9-4.6-1.9-7-3c-0.8-0.4-1.6-0.7-2.4-1.1l-1.8-0.8v-3.4c0-1.1,0-2.3,0-3.4c0-3.3-1.5-3.4-2.2-3.4c-0.7,0-2.3-0.1-2.4,3.4
			c-0.2,5.2-0.8,6.4-4.8,8.7c-0.5,0.3-1,0.5-1.6,0.9c-6.7,4-10.7,1-13.6-2.4c-0.4-0.5-0.9-0.8-1.5-0.8c-0.6,0-1.2,0.3-1.7,0.8
			c-1.3,1.4-0.2,2.8,0.3,3.4c0.8,0.9,1.8,1.6,2.9,2.5c0.5,0.4,1,0.8,1.5,1.2l1.9,1.6l-1.2,2.2c-0.4,0.7-0.7,1.3-1,1.8
			c-0.3,0.5-0.7,1.1-0.7,1.3c-1.6,7.4-6.1,10.6-13.2,9.7c-0.3,0.1-1,1-1,1.8c0.2,2,1.1,2.1,1.7,2.2c1.3,0.2,2.8,0.2,4.8,0.2
			c2.9-0.1,4.8,1.2,5.8,4c0.6,1.8,1.3,3.7,2.2,5.8c0.4,1,0.8,2,1.3,3.1l0.8,2l-1.6,1.4c-0.3,0.3-0.7,0.6-1.1,0.9
			c-0.8,0.7-1.7,1.4-2.5,2.2c-1.5,1.6-1.8,2.9-0.7,3.9c0.4,0.4,1.5,1.5,4-0.7c2.7-2.5,4.1-3.5,6.1-3.5c1,0,2.2,0.3,3.8,0.7
			c0.4,0.1,0.9,0.3,1.4,0.4c6.1,1.7,8.5,5.2,8,11.3c-0.1,0.7,0.1,1.2,0.4,1.6c0.4,0.4,1.1,0.7,1.8,0.7c0.7,0,1.4-0.3,1.7-0.7
			c0.4-0.4,0.5-1,0.4-1.7c-0.6-6.4,2.3-9,7.3-11.1c5.3-2.3,8.9-1.6,12.5,2.6c0.6,0.7,1.3,1,1.9,1.1c0.7,0,1.3-0.4,1.6-0.7
			c1.3-1.4,0.2-2.9-0.5-3.7c-0.8-0.8-1.7-1.5-2.8-2.3c-0.5-0.4-1-0.8-1.5-1.2l-2.2-1.8l2.3-3.2c0.5-0.8,1.2-1.6,1.2-1.9
			c1.8-9,8.1-10.1,13-9.5c0.1,0,0.2,0,0.4-0.2c0.4-0.4,0.8-1.2,0.8-1.8C301.6,176.3,300.7,175.4,299.5,175.3z M279.6,191.8
			c-3.7,3.6-8.7,5.8-14.2,5.8h-0.1c-5.4,0-10.5-2.2-14.3-6.2c-3.8-3.9-5.9-9.1-5.7-14.5c0.1-5.4,2.4-10.5,6.3-14.2
			c3.9-3.7,9-5.7,14.2-5.6c11.3,0.3,20,9.3,19.9,20.5C285.6,183.2,283.3,188.2,279.6,191.8z"/>
	</g>
	<g>
		<path class="st0" d="M107.6,163.9h-0.2c-8.1,0-15.7,3.1-21.4,8.8c-5.8,5.7-9,13.4-9,21.6c0,16.7,13.6,30.3,30.3,30.5
			c8.1,0.1,15.8-3.1,21.6-8.8c5.8-5.8,9-13.5,9-21.7C137.9,177.4,124.6,164,107.6,163.9z M126.6,211.8c-4.7,5.1-11.1,8.1-18.3,8.4
			c-0.4,0-0.7,0-1.1,0c-13.5,0-24.9-10.9-25.7-24.8c-0.8-13.7,10.3-25.8,24.7-26.8c0.6,0,1.2-0.1,1.8-0.1c5.9,0,11.6,2.2,16.3,6.3
			c5.4,4.8,8.5,11.4,8.9,18.7C133.6,200.2,131.2,206.8,126.6,211.8z"/>
	</g>
	<g>
		<path class="st0" d="M121,145.1c-0.1,0.6-0.4,2.2-3.6,1.7c-8.1-1.3-15.6-1.1-22.7,0.8c-21.9,5.7-37.2,27.1-35.5,49.8
			c0.6,8,2.8,15.2,6.7,21.8l0.2,0.4c0.2,0.3,0.4,0.7,0.6,1c1,1.9,0.8,3.3-0.4,4c-1.2,0.7-2.4,0.1-3.5-1.6
			c-5.5-8.7-8.3-18.3-8.3-28.4c0.3-25.6,17.3-46.5,42.2-52c7.1-1.6,14.3-1.6,21.4-0.1C119.5,142.7,121.3,143.5,121,145.1z"/>
	</g>
	<g>
		<path class="st0" d="M144.3,232.4c-9.7,9.7-22.2,14.8-36.1,15c-11-0.1-20.6-2.8-29.3-8.4c-1.7-1.1-2.2-2.3-1.5-3.5
			c0.2-0.3,0.5-1,1.7-1c0.6,0,1.4,0.2,2.6,0.7c1.1,0.5,2.2,1,3.3,1.5c4.2,1.9,8.5,3.9,13.1,4.9c24.2,5.5,50-10.3,56.2-34.6
			c1.9-7.3,2.2-14.4,0.9-21.3c-0.1-0.6-0.2-1.2-0.2-1.7c-0.2-2.9,1.3-3.1,1.8-3.2c1.8-0.3,2.4,1.6,2.5,2.5
			C162.9,202.4,157.9,218.9,144.3,232.4z"/>
	</g>
	<g>
		<path class="st0" d="M149.2,162.6c0,0,0,0.1-0.1,0.1c-0.3,0.4-0.8,1.3-1,1.4c-0.5,0.2-1.7,0.2-2.1,0c-2.7-2.1-5.3-4.8-8.6-8.5
			c-0.2-0.2-0.7-0.8,0.3-2.1c0.6-0.7,1.2-1,1.6-1.1c0.1,0,0.2,0,0.2,0.1c2.8,2.3,5.3,4.9,7.9,7.7c0.6,0.6,1.2,1.3,1.8,1.9
			c0,0,0,0.1,0,0.1C149.2,162.4,149.2,162.5,149.2,162.6z"/>
	</g>
	<g>
		<path class="st0" d="M245.1,43c-0.2,1.4-1.2,2-3,1.8c-4.8-0.6-11.9-0.9-17.9,4.4c-5.3,4.6-7.7,10.5-7,17.3l0.1,0.9
			c0.1,1,0.2,1.9,0.2,2.7c0,1.3-0.7,2.2-1.9,2.4c-0.8,0.1-2-0.5-2.3-1.5c-0.4-1.5-0.6-3-0.8-4.7c-0.1-0.7-0.2-1.3-0.3-2
			c0.4-7.8,4.1-15,10.3-19.6c5.8-4.4,13.1-5.9,20-4.3C243.8,40.7,245.3,41.4,245.1,43z"/>
	</g>
	<g>
		<path class="st0" d="M262.2,65.1c-0.5,7.8-4.3,14.9-10.3,19.5c-5.8,4.4-12.9,5.9-19.9,4.3c-1.3-0.3-2.9-1-2.7-2.6
			c0.1-0.7,0.3-1.2,0.7-1.4c0.4-0.3,0.9-0.4,1.6-0.4c0.2,0,0.5,0,0.8,0.1c8.9,1.3,15.6-1.1,20.5-7.3c3.5-4.3,4.9-9.3,4.2-14.7
			c-0.1-1.2-0.2-2.3-0.3-3.2c0-0.8,0.2-2.2,1.8-2.5c0.9-0.2,2.1,0.4,2.4,1.7c0.4,1.5,0.5,3,0.8,4.7C262,63.8,262.1,64.4,262.2,65.1z
			"/>
	</g>
	<g>
		<path class="st0" d="M267.7,177.5c0,0.6-0.2,1.1-0.7,1.5c-0.5,0.4-1,0.7-1.6,0.7c-0.6,0-1.2-0.3-1.6-0.8c-0.4-0.4-0.6-1-0.6-1.5
			c0-1.1,1.1-2.1,2.3-2.1c0,0,0,0,0,0c0.6,0,1.2,0.3,1.6,0.7C267.5,176.4,267.7,176.9,267.7,177.5z"/>
	</g>
</g>
</svg>
