<?xml version="1.0" encoding="utf-8"?>
<!-- Generator: Adobe Illustrator 19.0.1, SVG Export Plug-In . SVG Version: 6.00 Build 0)  -->
<svg version="1.1" id="Capa_1" xmlns="http://www.w3.org/2000/svg" xmlns:xlink="http://www.w3.org/1999/xlink" x="0px" y="0px"
	 viewBox="4.5 164.9 421 512" style="enable-background:new 4.5 164.9 421 512;" xml:space="preserve">
<style type="text/css">
	.st0{fill:#384757;}
</style>
<g>
	<g>
		<path class="st0" d="M47,371H12c-4.1,0-7.5,3.4-7.5,7.5S7.8,386,12,386h35c4.1,0,7.5-3.4,7.5-7.5C54.5,374.3,51.1,371,47,371z"/>
	</g>
</g>
<g>
	<g>
		<path class="st0" d="M418,371h-35c-4.1,0-7.5,3.4-7.5,7.5s3.4,7.5,7.5,7.5h35c4.1,0,7.5-3.4,7.5-7.5S422.2,371,418,371z"/>
	</g>
</g>
<g>
	<g>
		<path class="st0" d="M78.4,458.2c-2.1-3.6-6.7-4.8-10.2-2.7L37.8,473c-6.6,3.8-3.9,14,3.8,14c2.8,0,1.4,0.3,34.1-18.5
			C79.2,466.4,80.5,461.8,78.4,458.2z"/>
	</g>
</g>
<g>
	<g>
		<path class="st0" d="M399.9,271.7c-2.1-3.6-6.7-4.8-10.2-2.7l-30.3,17.5c-3.6,2.1-4.8,6.7-2.7,10.2c2.1,3.6,6.7,4.8,10.2,2.7
			l30.3-17.5C400.8,279.9,402,275.3,399.9,271.7z"/>
	</g>
</g>
<g>
	<g>
		<path class="st0" d="M390.2,469l-30.3-17.5c-3.6-2.1-8.2-0.8-10.2,2.7c-2.1,3.6-0.8,8.2,2.7,10.2c32.6,18.8,31.3,18.5,34.1,18.5
			C394,483,396.8,472.8,390.2,469z"/>
	</g>
</g>
<g>
	<g>
		<path class="st0" d="M68.7,282.5L38.3,265c-3.6-2.1-8.2-0.8-10.2,2.7c-2.1,3.6-0.8,8.2,2.7,10.2c32.6,18.8,31.3,18.5,34.1,18.5
			C72.5,296.5,75.3,286.3,68.7,282.5z"/>
	</g>
</g>
<g>
	<g>
		<path class="st0" d="M326.8,188.6c-3.6-2.1-8.2-0.8-10.2,2.7L299,221.6c-2.9,5,0.8,11.3,6.5,11.3c2.6,0,5.1-1.3,6.5-3.8l17.5-30.3
			C331.6,195.2,330.3,190.6,326.8,188.6z"/>
	</g>
</g>
<g>
	<g>
		<path class="st0" d="M128.6,221.6l-17.5-30.3c-2.1-3.6-6.7-4.8-10.2-2.7c-3.6,2.1-4.8,6.7-2.7,10.2l17.5,30.3
			c2.1,3.6,6.7,4.8,10.2,2.7C129.4,229.8,130.7,225.2,128.6,221.6z"/>
	</g>
</g>
<g>
	<g>
		<path class="st0" d="M215,164.9c-4.1,0-7.5,3.4-7.5,7.5v30.1c0,4.1,3.4,7.5,7.5,7.5s7.5-3.4,7.5-7.5v-30.1
			C222.5,168.2,219.1,164.9,215,164.9z"/>
	</g>
</g>
<g>
	<g>
		<path class="st0" d="M319.8,268.4c-22.8-25.6-53.6-42.2-86.7-46.6c-4.1-0.5-7.9,2.3-8.4,6.4c-0.5,4.1,2.3,7.9,6.4,8.4
			c61.7,8.3,108.6,61.4,111.7,126.4c0.2,4.2,3.7,7.3,7.8,7.1c4.1-0.2,7.3-3.7,7.1-7.8C356.1,327.4,342.6,294,319.8,268.4z"/>
	</g>
</g>
<g>
	<g>
		<path class="st0" d="M349.2,390.3c-4.1-0.8-8,1.9-8.8,6c-9.1,47.3-38.3,70.8-43.8,76.7c-2.6,2.8-23,24.8-27.2,46.2h-27.6v-17.3
			c27.4-39.8,26.7-37.9,26.7-41.1v-15.5c6.3-3.2,10.7-9.8,10.7-17.4v-4.7c0-10.8-8.7-19.5-19.5-19.5h-90c-10.8,0-19.5,8.7-19.5,19.5
			c0,4.1-1.2,16,10.7,22c0,16.9-0.4,17.3,1.3,19.7l25.3,36.8v17.3h-27.6c-4-20.5-24.2-43.6-27.7-46.7c-29.1-25.6-45.8-63-45.8-102.8
			c0-67.3,48.1-124.5,111.8-133.1c4.1-0.6,7-4.3,6.4-8.4c-0.6-4.1-4.3-7-8.4-6.4c-71.2,9.6-124.8,73.2-124.8,147.9
			c0,43.9,18.5,85.4,50.7,113.8c6,6.4,19.7,23.4,23,37.5c-6.7,3.1-11.3,9.8-11.3,17.7c0,12.1-0.9,17.5,4.2,24
			c-5.1,6.5-4.2,11.8-4.2,24c0,4.5,1.6,8.7,4.2,12c-5.1,6.5-4.2,11.8-4.2,24c0,10.8,8.7,19.5,19.5,19.5h19.5
			c3.9,19.7,21.4,34.7,42,34.7c20.7,0,38.2-15,42-34.7h19.5c10.8,0,19.5-8.7,19.5-19.5c0-12.1,0.9-17.5-4.2-24
			c5.1-6.5,4.2-11.8,4.2-24c0-4.5-1.6-8.7-4.2-12c5.1-6.5,4.2-11.8,4.2-24c0-7.8-4.6-14.6-11.3-17.7c3.3-14.1,17-31.2,23-37.5
			c24.6-21.7,41.6-51.7,47.9-84.4C355.9,395,353.2,391.1,349.2,390.3z M165.1,428v-4.7c0-2.5,2-4.5,4.5-4.5h90c2.5,0,4.5,2,4.5,4.5
			v4.7c0,2.5-2,4.5-4.5,4.5h-90C167.1,432.5,165.1,430.5,165.1,428z M175.7,458.5v-11h77.7v11c-27.4,39.8-26.7,37.9-26.7,41.1v19.6
			h-24.3c0-21.5,0.4-21.4-1.3-23.9L175.7,458.5z M188,642.2h53.2C233,668.3,196.1,668.3,188,642.2z M280.6,622.7
			c0,2.5-2,4.5-4.5,4.5c-11.7,0-109.6,0-123,0c-2.5,0-4.5-2-4.5-4.5v-12c0-2.5,2-4.5,4.5-4.5h123c2.5,0,4.5,2,4.5,4.5V622.7z
			 M280.6,586.7c0,2.5-2,4.5-4.5,4.5h-123c-2.5,0-4.5-2-4.5-4.5v-12c0-2.5,2-4.5,4.5-4.5h123c2.5,0,4.5,2,4.5,4.5V586.7z
			 M280.6,550.7c0,2.5-2,4.5-4.5,4.5h-123c-2.5,0-4.5-2-4.5-4.5v-12c0-2.5,2-4.5,4.5-4.5h123c2.5,0,4.5,2,4.5,4.5V550.7z"/>
	</g>
</g>
</svg>
