<?xml version="1.0" encoding="utf-8"?>
<!-- Generator: Adobe Illustrator 19.0.1, SVG Export Plug-In . SVG Version: 6.00 Build 0)  -->
<svg version="1.1" id="Capa_1" xmlns="http://www.w3.org/2000/svg" xmlns:xlink="http://www.w3.org/1999/xlink" x="0px" y="0px"
	 viewBox="-114 380.8 475 435.9" style="enable-background:new -114 380.8 475 435.9;" xml:space="preserve">
<style type="text/css">
	.st0{fill:#4D99C2;stroke:#4D99C2;stroke-width:3;stroke-miterlimit:10;}
</style>
<g>
	<g>
		<path class="st0" d="M361,558v-8.3c0-32.5-26.5-59-59-59h-60c-27,0-49-22-49-49s22-49,49-49h79v-6h-79c-30.3,0-55,24.7-55,55
			c0,30.3,24.7,55,55,55h60c29.2,0,53,23.8,53,53v8.2c0.1,24.5-9.9,48.5-27.3,65.8l-9.8,9.9l-85.9-86c-0.6-0.6-1.3-0.9-2.1-0.9H-90
			c-10.5,0-19,8.5-19,19v232c0,10.5,8.5,19,19,19h319.8c0.8,0,1.6-0.3,2.2-1l112-119c10-10.5,9.7-27.4-0.6-37.6l-21.3-21.2l9.9-9.9
			C350.5,609.6,361.1,584.1,361,558z M339.2,663.4c8,7.9,8.2,21.1,0.4,29.3L228.5,810.8H-90c-7.2,0-13-5.8-13-13v-232
			c0-7.2,5.8-13,13-13h318.6l85.1,85.1L295,656.6l-3.4-2c-4.1-2.5-8.8-3.8-13.6-3.8c-14.9,0-27,12.1-27,27s12.1,27,27,27
			s27-12.1,27-27c0-4.8-1.3-9.5-3.8-13.6l-2-3.4l18.7-18.7L339.2,663.4z M283.7,676.4l12.2-12.2l2.3,8.2c0.5,1.8,0.8,3.6,0.8,5.4
			c0,11.6-9.4,21.1-21,21.1s-21-9.4-21-21c0-11.6,9.4-21,21-21c1.9,0,3.7,0.3,5.5,0.8l8.2,2.3l-12.2,12.2L283.7,676.4z"/>
	</g>
	<path class="st0" d="M-27.1,714.9c-6.5,4.5-14.4,6.8-22.3,6.3h-0.2h-0.2c-7.4,0.3-14.9-1-21.8-3.6v-5.8c2.8,1,5.8,1.9,8.6,2.6
		c4.7,1.1,9.5,1.8,14.2,1.8c5.6,0.4,11.2-1,15.9-4.2l0.2-0.1c3.8-3,6-7.7,5.9-12.5c0-4.6-1.9-8.9-5.4-11.9l-0.2-0.2
		c-5.3-3.9-11.2-7-17.5-9.2c-6.2-2.1-11.8-5.8-16.3-10.6c-2.9-3.8-4.4-8.5-4.3-13.3v-0.1v-0.2c-0.3-5.8,2.3-11.5,6.8-15.1
		c5.7-4.2,12.7-6.3,19.8-5.9h0.1c7.5,0,14.7,1.4,21.7,4.1l-2,5c-6.4-2.4-13-3.8-19.7-4c-5-0.4-9.9,1-14,4l-0.2,0.1
		c-3.4,2.9-5.4,7.2-5.3,11.6c-0.1,2.9,0.6,5.7,2.1,8.2l0.1,0.2c1.6,2.5,3.8,4.6,6.4,6.2c4.2,2.5,8.7,4.6,13.3,6.4
		c5,1.9,9.8,4.4,14.2,7.5c2.4,1.8,4.5,4.2,5.8,6.9c1.3,2.9,2,6.1,1.9,9.3v0.2C-19.4,704.9-22.1,711-27.1,714.9z"/>
	<path class="st0" d="M71.1,719.9h-7.7l-9.3-26H12.6l-9.2,26h-7.5l32-86h3.5l-1.9,8.3c-1.3,5.7-3,11.4-4.9,16.8l-10.3,29.8h38.5
		l-10.6-30.9c-0.6-1.7-1.5-4.3-2.6-7.9c-1.1-3.5-1.9-6.2-2.3-7.9l-2-8.2H39L71.1,719.9z"/>
	<polygon class="st0" points="140.1,714.8 140.1,719.9 93.2,719.9 93.2,634.3 100.5,634.3 100.5,714.8 	"/>
	<polygon class="st0" points="171.6,639.2 171.6,672.7 206.9,672.7 206.9,677.5 171.6,677.5 171.6,714.9 209.2,714.9 209.2,719.9 
		164.3,719.9 164.3,634.3 209.2,634.3 209.2,639.2 	"/>
	<rect x="-70" y="585.8" class="st0" width="280" height="8"/>
	<rect x="-70" y="769.8" class="st0" width="280" height="8"/>
</g>
</svg>
