<?xml version="1.0" encoding="utf-8"?>
<!-- Generator: Adobe Illustrator 19.0.1, SVG Export Plug-In . SVG Version: 6.00 Build 0)  -->
<svg version="1.1" id="Layer_1" xmlns="http://www.w3.org/2000/svg" xmlns:xlink="http://www.w3.org/1999/xlink" x="0px" y="0px"
	 viewBox="-35.1 209.1 324 423.8" style="enable-background:new -35.1 209.1 324 423.8;" xml:space="preserve">
<style type="text/css">
	.st0{fill:#384757;}
</style>
<g>
	<g>
		<path class="st0" d="M288.4,390.5c-1.2-3.2-4-5.2-7.6-5.2H158l105.6-163.6c2-3.2,1.6-7.6-1.2-10.4c-2.8-2.8-7.2-2.8-10.4-0.4
			l-284,224c-2.8,2-3.6,5.6-2.8,8.8c0.8,3.2,4,5.2,7.6,5.2H90.4L-18,620.5c-2,3.2-1.6,7.6,1.6,10.4c1.6,1.2,3.6,2,5.2,2
			s3.6-0.4,4.8-1.6l292-232C288.4,397.3,289.6,393.7,288.4,390.5z M20.8,589.7l90.8-144.4c1.6-2.4,1.6-5.6,0.4-8c-1.6-2.4-4-4-7.2-4
			H-4l228-180l-87.6,135.6c-1.6,2.4-1.6,5.6-0.4,8c1.2,2.4,4,4,7.2,4H258L20.8,589.7z"/>
	</g>
</g>
</svg>
