<?xml version="1.0" encoding="utf-8"?>
<!-- Generator: Adobe Illustrator 19.0.1, SVG Export Plug-In . SVG Version: 6.00 Build 0)  -->
<svg version="1.1" id="Слой_1" xmlns="http://www.w3.org/2000/svg" xmlns:xlink="http://www.w3.org/1999/xlink" x="0px" y="0px"
	 viewBox="-66 382.8 344 457" style="enable-background:new -66 382.8 344 457;" xml:space="preserve">
<style type="text/css">
	.st0{fill:#4D99C2;}
</style>
<g>
	<g>
		<path class="st0" d="M243.5,398.8H224v-11.5c0-2.5-2-4.5-4.5-4.5s-4.5,2-4.5,4.5v11.5h-39v-11.5c0-2.5-2-4.5-4.5-4.5
			s-4.5,2-4.5,4.5v11.5h-39v-11.5c0-2.5-2-4.5-4.5-4.5s-4.5,2-4.5,4.5v11.5H80v-11.5c0-2.5-2-4.5-4.5-4.5s-4.5,2-4.5,4.5v11.5H32
			v-11.5c0-2.5-2-4.5-4.5-4.5s-4.5,2-4.5,4.5v11.5h-39v-11.5c0-2.5-2-4.5-4.5-4.5s-4.5,2-4.5,4.5v11.5h-19.5
			c-11.3,0-20.5,9.2-20.5,20.5v400c0,11.3,9.2,20.5,20.5,20.5h288c11.3,0,20.5-9.2,20.5-20.5v-400C264,408,254.8,398.8,243.5,398.8z
			 M255,819.3c0,6.3-5.2,11.5-11.5,11.5h-288c-6.3,0-11.5-5.2-11.5-11.5v-400c0-6.3,5.2-11.5,11.5-11.5H-25v11.5
			c0,2.5,2,4.5,4.5,4.5s4.5-2,4.5-4.5v-11.5h39v11.5c0,2.5,2,4.5,4.5,4.5s4.5-2,4.5-4.5v-11.5h39v11.5c0,2.5,2,4.5,4.5,4.5
			s4.5-2,4.5-4.5v-11.5h39v11.5c0,2.5,2,4.5,4.5,4.5s4.5-2,4.5-4.5v-11.5h39v11.5c0,2.5,2,4.5,4.5,4.5s4.5-2,4.5-4.5v-11.5h39v11.5
			c0,2.5,2,4.5,4.5,4.5s4.5-2,4.5-4.5v-11.5h19.5c6.3,0,11.5,5.2,11.5,11.5V819.3z"/>
	</g>
	<g>
		<path class="st0" d="M192,491.3c0,2.5-2,4.5-4.5,4.5h-112c-2.5,0-4.5-2-4.5-4.5s2-4.5,4.5-4.5h112C190,486.8,192,488.8,192,491.3z
			"/>
	</g>
	<g>
		<path class="st0" d="M224,523.3c0,2.5-2,4.5-4.5,4.5h-144c-2.5,0-4.5-2-4.5-4.5s2-4.5,4.5-4.5h144C222,518.8,224,520.8,224,523.3z
			"/>
	</g>
	<g>
		<path class="st0" d="M46.7,486.5l-40,40c-0.9,0.9-2,1.3-3.2,1.3s-2.3-0.5-3.2-1.3l-24-24c-1.8-1.8-1.8-4.6,0-6.4
			c0.9-0.9,2-1.3,3.2-1.3s2.3,0.4,3.2,1.3l20.8,20.8l36.8-36.8c1.8-1.8,4.6-1.8,6.4,0C48.4,481.9,48.4,484.7,46.7,486.5z"/>
	</g>
	<g>
		<path class="st0" d="M192,571.3c0,2.5-2,4.5-4.5,4.5h-112c-2.5,0-4.5-2-4.5-4.5s2-4.5,4.5-4.5h112C190,566.8,192,568.8,192,571.3z
			"/>
	</g>
	<g>
		<path class="st0" d="M224,603.3c0,2.5-2,4.5-4.5,4.5h-144c-2.5,0-4.5-2-4.5-4.5s2-4.5,4.5-4.5h144C222,598.8,224,600.8,224,603.3z
			"/>
	</g>
	<g>
		<path class="st0" d="M46.7,566.5l-40,40c-0.9,0.9-2,1.3-3.2,1.3s-2.3-0.5-3.2-1.3l-24-24c-1.8-1.8-1.8-4.6,0-6.4
			c0.9-0.9,2-1.3,3.2-1.3s2.3,0.4,3.2,1.3l20.8,20.8l36.8-36.8c1.8-1.8,4.6-1.8,6.4,0C48.4,561.9,48.4,564.7,46.7,566.5z"/>
	</g>
	<g>
		<path class="st0" d="M192,651.3c0,2.5-2,4.5-4.5,4.5h-112c-2.5,0-4.5-2-4.5-4.5s2-4.5,4.5-4.5h112C190,646.8,192,648.8,192,651.3z
			"/>
	</g>
	<g>
		<path class="st0" d="M224,683.3c0,2.5-2,4.5-4.5,4.5h-144c-2.5,0-4.5-2-4.5-4.5s2-4.5,4.5-4.5h144C222,678.8,224,680.8,224,683.3z
			"/>
	</g>
	<g>
		<path class="st0" d="M46.7,646.5l-40,40c-0.9,0.9-2,1.3-3.2,1.3s-2.3-0.5-3.2-1.3l-24-24c-1.8-1.8-1.8-4.6,0-6.4
			c0.9-0.9,2-1.3,3.2-1.3s2.3,0.4,3.2,1.3l20.8,20.8l36.8-36.8c1.8-1.8,4.6-1.8,6.4,0C48.4,641.9,48.4,644.7,46.7,646.5z"/>
	</g>
	<g>
		<path class="st0" d="M192,731.3c0,2.5-2,4.5-4.5,4.5h-112c-2.5,0-4.5-2-4.5-4.5s2-4.5,4.5-4.5h112C190,726.8,192,728.8,192,731.3z
			"/>
	</g>
	<g>
		<path class="st0" d="M224,763.3c0,2.5-2,4.5-4.5,4.5h-144c-2.5,0-4.5-2-4.5-4.5s2-4.5,4.5-4.5h144C222,758.8,224,760.8,224,763.3z
			"/>
	</g>
	<g>
		<path class="st0" d="M46.7,726.5l-40,40c-0.9,0.9-2,1.3-3.2,1.3s-2.3-0.5-3.2-1.3l-24-24c-1.8-1.8-1.8-4.6,0-6.4
			c0.9-0.9,2-1.3,3.2-1.3s2.3,0.4,3.2,1.3l20.8,20.8l36.8-36.8c1.8-1.8,4.6-1.8,6.4,0C48.4,721.9,48.4,724.7,46.7,726.5z"/>
	</g>
</g>
</svg>
