<?xml version="1.0" encoding="utf-8"?>
<!-- Generator: Adobe Illustrator 19.0.1, SVG Export Plug-In . SVG Version: 6.00 Build 0)  -->
<svg version="1.1" id="Capa_1" xmlns="http://www.w3.org/2000/svg" xmlns:xlink="http://www.w3.org/1999/xlink" x="0px" y="0px"
	 viewBox="-122 245.9 350 350" style="enable-background:new -122 245.9 350 350;" xml:space="preserve">
<style type="text/css">
	.st0{fill:#CDCDCD;}
</style>
<g>
	<path class="st0" d="M53,417.1c38.9,0,70.5-38.3,70.5-85.6c0-47.3-10.4-85.6-70.5-85.6s-70.5,38.3-70.5,85.6
		C-17.5,378.7,14.1,417.1,53,417.1z"/>
	<path class="st0" d="M-80.1,547.7C-80.1,544.9-80.1,546.9-80.1,547.7L-80.1,547.7z"/>
	<path class="st0" d="M186.1,550C186.1,549.2,186.1,544.5,186.1,550L186.1,550z"/>
	<path class="st0" d="M185.9,544.3c-1.3-82.3-12.1-105.8-94.4-120.7c0,0-11.6,14.8-38.6,14.8s-38.6-14.8-38.6-14.8
		c-81.4,14.7-92.8,37.8-94.3,118c-0.1,6.5-0.2,6.9-0.2,6.1c0,1.4,0,4.1,0,8.7c0,0,19.6,39.5,133.1,39.5
		c113.5,0,133.1-39.5,133.1-39.5c0-3,0-5,0-6.4C186.1,550.5,186,549.6,185.9,544.3z"/>
</g>
</svg>
