<?xml version="1.0" encoding="utf-8"?>
<!-- Generator: Adobe Illustrator 19.0.1, SVG Export Plug-In . SVG Version: 6.00 Build 0)  -->
<svg version="1.1" id="Capa_1" xmlns="http://www.w3.org/2000/svg" xmlns:xlink="http://www.w3.org/1999/xlink" x="0px" y="0px"
	 viewBox="-68 191.9 459 459" style="enable-background:new -68 191.9 459 459;" xml:space="preserve">
<style type="text/css">
	.st0{fill:#CDCDCD;}
</style>
<g>
	<g id="call">
		<path class="st0" d="M23.8,390.8c35.7,71.4,96.9,130.1,168.3,168.3l56.1-56.1c7.6-7.6,17.9-10.2,25.5-5.1
			c28,10.2,58.6,15.3,91.8,15.3c15.3,0,25.5,10.2,25.5,25.5v86.7c0,15.3-10.2,25.5-25.5,25.5C125.8,650.9-68,457.1-68,217.4
			c0-15.3,10.2-25.5,25.5-25.5h89.3c15.3,0,25.5,10.2,25.5,25.5c0,30.6,5.1,61.2,15.3,91.8c2.6,7.6,0,17.9-5.1,25.5L23.8,390.8z"/>
	</g>
</g>
</svg>
