<?xml version="1.0" encoding="utf-8"?>
<!-- Generator: Adobe Illustrator 19.0.1, SVG Export Plug-In . SVG Version: 6.00 Build 0)  -->
<svg version="1.1" id="Layer_1" xmlns="http://www.w3.org/2000/svg" xmlns:xlink="http://www.w3.org/1999/xlink" x="0px" y="0px"
	 viewBox="-81 377.4 506 416.8" style="enable-background:new -81 377.4 506 416.8;" xml:space="preserve">
<style type="text/css">
	.st0{fill:#489FCD;stroke:#489FCD;stroke-width:3;stroke-miterlimit:10;}
</style>
<g>
	<g>
		<g>
			<g>
				<path class="st0" d="M375.8,549l-4.2-0.7v-15.8c0-14.9-12.1-27-27-27H233v-58.3c0-3.1-2.5-5.7-5.7-5.7h-37v-37
					c0-3.1-2.5-5.7-5.7-5.7h-147L18,379.1c-1.1-1.1-2.5-1.7-4-1.7s-2.9,0.6-4,1.7l-62.3,62.3h-19c-3.1,0-5.7,2.6-5.7,5.7v298.7
					c0,3.1,2.5,5.7,5.7,5.7h47.8l0.8,4c1.4,7,4.4,13.5,8.7,19.3l6,8h-31.3c-3.1,0-5.7,2.5-5.7,5.7c0,3.1,2.5,5.7,5.7,5.7h64.1
					c22.8,0,42.7-16.3,47.3-38.7l0.8-4h202.3l0.8,4c1.4,6.9,4.4,13.6,8.7,19.3l6,8h-31.4c-3.1,0-5.7,2.5-5.7,5.7
					c0,3.1,2.5,5.7,5.7,5.7h64.1c22.8,0,42.7-16.3,47.3-38.7l0.8-4h47.8c3.1,0,5.7-2.5,5.7-5.7V607.1
					C425,578.2,404.3,553.8,375.8,549z M179,410.1v31.3H80.3L49,410.1H179z M14,391.1l50.3,50.3H-36.3L14,391.1z M24.7,782.8
					c-20.4,0-37-16.6-37-37s16.6-37,37-37s37,16.6,37,37S45.1,782.8,24.7,782.8z M221.7,697.5h-77.5c-3.1,0-5.7,2.5-5.7,5.7
					c0,3.1,2.5,5.7,5.7,5.7h77.5v31.3H72.8l-0.8-4c-4.6-22.4-24.5-38.7-47.4-38.7s-42.8,16.3-47.4,38.7l-0.8,4h-42.2V559.5H-18
					c3.1,0,5.7-2.5,5.7-5.7c0-3.1-2.5-5.7-5.7-5.7h-47.7v-31.3h133c3.1,0,5.7-2.5,5.7-5.7c0-3.1-2.5-5.7-5.7-5.7h-133v-52.7h287.3
					v244.8H221.7z M276,736.1l-0.8,4H233v-31.3h57.7l-6,8C280.3,722.6,277.4,729.1,276,736.1z M360.3,745.9
					c-0.1,20.4-16.6,36.9-37,36.9s-37-16.6-37-37c0-20.3,16.5-37,36.9-37h0.1C343.7,708.8,360.3,725.4,360.3,745.9L360.3,745.9z
					 M413.7,740.1h-42.2l-0.8-4c-4.6-22.4-24.4-38.6-47.3-38.7H233V516.8h111.7c8.6,0,15.7,7,15.7,15.7v15.7h-79.7
					c-3.1,0-5.7,2.5-5.7,5.7v96c0,3.1,2.5,5.7,5.7,5.7h133V740.1z M317.7,559.5v84.7h-31.3v-84.7L317.7,559.5L317.7,559.5z
					 M413.7,644.1H329v-84.7h37c26.3,0,47.7,21.4,47.7,47.7V644.1z"/>
			</g>
			<g>
				<path class="st0" d="M114.7,703.1c0,3.1-2.5,5.7-5.7,5.7h-6.7c-3.1,0-5.7-2.5-5.7-5.7c0-3.1,2.5-5.7,5.7-5.7h6.7
					C112.2,697.5,114.7,700,114.7,703.1z"/>
			</g>
			<g>
				<path class="st0" d="M114.7,511.1c0,3.1-2.5,5.7-5.7,5.7h-6.7c-3.1,0-5.7-2.5-5.7-5.7c0-3.1,2.5-5.7,5.7-5.7h6.7
					C112.2,505.5,114.7,508,114.7,511.1z"/>
			</g>
		</g>
	</g>
</g>
</svg>
