<?xml version="1.0" encoding="utf-8"?>
<!-- Generator: Adobe Illustrator 22.0.1, SVG Export Plug-In . SVG Version: 6.00 Build 0)  -->
<svg version="1.1" id="Слой_1" xmlns="http://www.w3.org/2000/svg" xmlns:xlink="http://www.w3.org/1999/xlink" x="0px" y="0px"
	 viewBox="0 0 49.7 49.7" style="enable-background:new 0 0 49.7 49.7;" xml:space="preserve">
<style type="text/css">
	.st0{fill:#FFFFFF;}
</style>
<title>Ресурс 1</title>
<g id="Слой_2_1_">
	<g id="Слой_1-2">
		<path id="twitter" class="st0" d="M24.8,0C11.1,0,0,11.1,0,24.8s11.1,24.8,24.8,24.8c13.7,0,24.8-11.1,24.8-24.8c0,0,0,0,0,0
			C49.6,11.1,38.5,0,24.8,0z M35.9,19.1c0,0.3,0,0.5,0,0.7c0,7.6-5.8,16.2-16.3,16.2c-3.1,0-6.1-0.9-8.8-2.6c3,0.4,6.1-0.5,8.5-2.4
			c-2.5,0-4.6-1.7-5.3-4c0.9,0.2,1.7,0.1,2.6-0.1c-2.6-0.5-4.6-2.9-4.6-5.6c0,0,0,0,0-0.1c0.8,0.4,1.7,0.7,2.6,0.7
			c-2.5-1.7-3.3-5-1.8-7.6c2.9,3.6,7.2,5.8,11.8,6c-0.7-3.1,1.2-6.2,4.3-6.9c2-0.5,4.1,0.2,5.5,1.7c1.3-0.3,2.5-0.7,3.7-1.4
			c-0.4,1.3-1.3,2.4-2.5,3.2c1.1-0.1,2.2-0.4,3.3-0.9C38,17.3,37,18.3,35.9,19.1z"/>
	</g>
</g>
</svg>
