<?xml version="1.0" encoding="utf-8"?>
<!-- Generator: Adobe Illustrator 22.0.1, SVG Export Plug-In . SVG Version: 6.00 Build 0)  -->
<svg version="1.1" id="Слой_1" xmlns="http://www.w3.org/2000/svg" xmlns:xlink="http://www.w3.org/1999/xlink" x="0px" y="0px"
	 viewBox="0 0 50 50" style="enable-background:new 0 0 50 50;" xml:space="preserve">
<style type="text/css">
	.st0{fill:#FFFFFF;}
</style>
<title>Ресурс 3</title>
<g id="Слой_2_1_">
	<g id="Слой_1-2">
		<g id="vk">
			<path class="st0" d="M25.5,27.1H22v5.5h3.3c0.9,0.1,1.7-0.2,2.4-0.6c0.6-0.5,0.9-1.2,0.8-2c0.1-0.8-0.2-1.6-0.7-2.1
				C27.2,27.3,26.3,27,25.5,27.1z"/>
			<path class="st0" d="M26.8,23.1c0.6-0.4,1-1.2,0.9-1.9c0.1-0.8-0.3-1.6-0.9-2.1c-0.8-0.5-1.8-0.7-2.7-0.6H22v5.3h2
				C25,23.8,25.9,23.5,26.8,23.1z"/>
			<path class="st0" d="M25,0C11.2,0,0,11.2,0,25s11.2,25,25,25s25-11.2,25-25S38.8,0,25,0z M31.5,34.9c-1.8,1.2-4,1.8-6.2,1.7h-8.4
				V14.5h7.2c2.2-0.1,4.5,0.4,6.4,1.5c1.5,1,2.4,2.7,2.3,4.5c0,1-0.2,2-0.7,2.8c-0.5,0.9-1.3,1.5-2.3,1.8C31,25.4,32,26,32.7,27
				c0.6,0.9,1,1.9,1,3C33.8,31.9,33,33.7,31.5,34.9z"/>
		</g>
	</g>
</g>
</svg>
